<?xml version="1.0" standalone="no"?>
<!DOCTYPE svg PUBLIC "-//W3C//DTD SVG 20010904//EN"
 "http://www.w3.org/TR/2001/REC-SVG-20010904/DTD/svg10.dtd">
<svg version="1.0" xmlns="http://www.w3.org/2000/svg"
 width="1000.000000pt" height="298.000000pt" viewBox="0 0 1000.000000 298.000000"
 preserveAspectRatio="xMidYMid meet">

<g transform="translate(0.000000,298.000000) scale(0.100000,-0.100000)"
fill="#000000" stroke="none">
<path d="M1308 2503 c6 -2 18 -2 25 0 6 3 1 5 -13 5 -14 0 -19 -2 -12 -5z"/>
<path d="M1376 2486 c34 -15 97 -89 86 -101 -4 -5 -1 -5 6 -1 8 5 16 -3 23
-23 6 -17 14 -31 18 -31 7 0 72 -129 78 -155 1 -5 9 -37 19 -70 9 -33 18 -69
21 -80 15 -57 14 -254 -2 -330 -9 -44 -17 -87 -19 -95 -1 -8 -7 -25 -14 -36
-6 -12 -9 -24 -6 -26 6 -7 -50 -116 -98 -190 -39 -60 -169 -196 -226 -238 -85
-61 -183 -108 -299 -141 -94 -27 -125 -31 -238 -31 -113 -1 -143 2 -230 26
-55 15 -116 36 -135 46 -19 10 -50 24 -67 32 -18 7 -33 16 -33 19 0 4 -8 10
-17 13 -24 8 -50 25 -98 61 -49 36 -62 51 -81 90 l-14 30 6 -40 c21 -131 114
-344 204 -465 313 -420 906 -559 1380 -321 284 142 497 404 577 709 37 143 43
349 14 489 -49 239 -147 419 -318 584 -118 115 -270 205 -441 259 -95 31 -152
40 -96 16z"/>
<path d="M4060 2259 c-447 -31 -704 -223 -702 -522 2 -157 88 -286 250 -370
134 -70 293 -106 632 -143 172 -19 221 -32 262 -71 21 -20 28 -36 28 -66 0
-52 -12 -72 -63 -101 -124 -73 -439 -77 -575 -7 -46 24 -119 101 -128 135 -5
20 -11 25 -28 21 -11 -2 -106 -14 -211 -25 -104 -11 -202 -23 -217 -26 l-27
-5 20 -52 c60 -155 197 -276 382 -337 140 -46 132 -47 158 7 77 159 275 232
434 159 71 -32 146 -108 170 -170 l17 -44 90 25 c140 38 230 86 315 166 153
146 194 317 122 511 -30 79 -119 170 -209 213 -84 40 -238 74 -525 113 -245
34 -322 55 -367 101 -35 34 -38 93 -8 132 38 48 119 70 260 71 141 1 203 -13
283 -63 39 -26 97 -95 109 -133 3 -9 71 3 323 58 44 10 82 19 83 20 8 5 -51
103 -88 148 -160 193 -431 280 -790 255z"/>
<path d="M2719 2202 c32 -110 119 -175 231 -174 96 0 181 55 217 139 27 66 37
63 -221 63 l-235 0 8 -28z"/>
<path d="M2670 1361 l0 -711 275 0 275 0 0 706 0 706 -50 -46 c-133 -119 -336
-113 -459 14 l-41 42 0 -711z"/>
<path d="M4061 776 c-63 -22 -158 -123 -136 -144 8 -8 422 -9 430 0 12 11 -23
65 -67 102 -63 54 -149 70 -227 42z"/>
</g>
</svg>
